<svg height="511pt" viewBox="0 1 511 511.99988" width="511pt" xmlns="http://www.w3.org/2000/svg"><path d="m459.402344 197.078125c-6.1875 0-11.949219-3.914063-14.011719-10.101563l-13.820313-41.460937-41.460937-13.824219c-4.410156-1.46875-7.871094-4.929687-9.34375-9.339844l-13.820313-41.460937-41.460937-13.820313c-7.738281-2.582031-11.917969-10.945312-9.339844-18.683593s10.941407-11.921875 18.683594-9.34375l48.46875 16.15625c4.410156 1.472656 7.871094 4.933593 9.339844 9.34375l13.820312 41.460937 41.460938 13.820313c4.410156 1.472656 7.871093 4.933593 9.34375 9.34375l16.152343 48.464843c2.578126 7.742188-1.601562 16.105469-9.339843 18.683594-1.550781.519532-3.125.761719-4.671875.761719zm0 0" fill="#e70020"/><path d="m116.085938 512c-22.253907 0-43.175782-8.667969-58.910157-24.402344l-32.3125-32.3125c-32.484375-32.484375-32.484375-85.339844 0-117.824218l323.121094-323.121094c19.121094-19.121094 50.230469-19.121094 69.355469 0l80.78125 80.78125c19.121094 19.121094 19.121094 50.234375 0 69.355468l-323.121094 323.121094c-15.738281 15.734375-36.660156 24.402344-58.914062 24.402344zm266.574218-482.472656c-4.992187 0-9.988281 1.898437-13.789062 5.703125l-323.121094 323.117187c-20.96875 20.96875-20.96875 55.082032 0 76.050782l32.3125 32.3125c10.15625 10.15625 23.660156 15.75 38.023438 15.75 14.363281 0 27.867187-5.59375 38.023437-15.75l323.121094-323.121094c7.605469-7.605469 7.605469-19.976563 0-27.582032l-80.777344-80.78125c-3.800781-3.800781-8.796875-5.699218-13.792969-5.699218zm0 0" fill="#93480e"/><path d="m233.21875 423.261719c-3.917969 0-7.675781-1.558594-10.445312-4.328125l-129.25-129.246094c-5.765626-5.769531-5.765626-15.121094 0-20.890625l80.78125-80.777344c5.765624-5.769531 15.121093-5.769531 20.886718 0l129.25 129.246094c2.769532 2.769531 4.328125 6.527344 4.328125 10.445313 0 3.914062-1.558593 7.671874-4.328125 10.441406l-80.78125 80.78125c-2.769531 2.769531-6.523437 4.328125-10.441406 4.328125zm-108.363281-144.019531 108.363281 108.359374 59.890625-59.890624-108.359375-108.359376zm0 0" fill="#ffa91d"/></svg>