<?xml version="1.0"?>
<svg xmlns="http://www.w3.org/2000/svg" xmlns:xlink="http://www.w3.org/1999/xlink" viewBox="0 0 64 64" width="512" height="512"><defs><linearGradient id="linear-gradient" y1="32.5" x2="60" y2="32.5" gradientUnits="userSpaceOnUse"><stop offset="0" stop-color="#039bca"/><stop offset="0.207" stop-color="#3a7ac4"/><stop offset="0.598" stop-color="#9c3fb9"/><stop offset="0.871" stop-color="#da1ab2"/><stop offset="1" stop-color="#f20baf"/></linearGradient><linearGradient id="linear-gradient-2" y1="38" y2="38" gradientTransform="translate(58.587 -18.796) rotate(63.435)" xlink:href="#linear-gradient"/><linearGradient id="linear-gradient-3" y1="38" y2="38" gradientTransform="translate(60.246 -21.479) rotate(63.435)" xlink:href="#linear-gradient"/><linearGradient id="linear-gradient-4" y1="38" y2="38" gradientTransform="translate(19.053 -4.709) rotate(26.565)" xlink:href="#linear-gradient"/><linearGradient id="linear-gradient-5" y1="38" y2="38" gradientTransform="translate(18.736 -3.367) rotate(26.565)" xlink:href="#linear-gradient"/><linearGradient id="linear-gradient-6" y1="27" y2="27" xlink:href="#linear-gradient"/></defs><g id="Gradient_outline" data-name="Gradient outline"><path d="M61.707,29.293l-3.521-3.522,2.733-6.377a1,1,0,0,0-1.449-1.242L52.834,22.3A9.012,9.012,0,0,0,44,15H20a9.012,9.012,0,0,0-8.834,7.3L4.53,18.152a1,1,0,0,0-1.449,1.242l2.733,6.377L2.293,29.293a1,1,0,0,0,0,1.414l3.521,3.522L3.081,40.606A1,1,0,0,0,4.53,41.848L11.166,37.7A9.012,9.012,0,0,0,20,45h9a5,5,0,0,0,10,0h5a9.012,9.012,0,0,0,8.834-7.3l6.636,4.148a1,1,0,0,0,1.449-1.242l-2.733-6.377,3.521-3.522A1,1,0,0,0,61.707,29.293ZM11,35.445,6.176,38.461l1.743-4.067a1,1,0,0,0-.212-1.1L4.414,30l3.293-3.293a1,1,0,0,0,.212-1.1L6.176,21.539,11,24.555ZM37,45a3,3,0,0,1-2,2.816V44H33v3.816A3,3,0,0,1,31,45V40h6Zm14-9a7.008,7.008,0,0,1-7,7H39V40h2V38H23v2h6v3H20a7.008,7.008,0,0,1-7-7V24a7.008,7.008,0,0,1,7-7H44a7.008,7.008,0,0,1,7,7Zm5.293-2.707a1,1,0,0,0-.212,1.1l1.743,4.067L53,35.445V24.555l4.824-3.016-1.743,4.067a1,1,0,0,0,.212,1.1L59.586,30Z" style="fill:url(#linear-gradient)"/><rect x="43.382" y="37" width="2.236" height="2" transform="translate(-9.389 60.808) rotate(-63.435)" style="fill:url(#linear-gradient-2)"/><rect x="46.382" y="37" width="2.236" height="2" transform="translate(-7.731 63.491) rotate(-63.435)" style="fill:url(#linear-gradient-3)"/><rect x="18.5" y="36.882" width="2" height="2.236" transform="translate(-14.935 12.732) rotate(-26.565)" style="fill:url(#linear-gradient-4)"/><rect x="15.5" y="36.882" width="2" height="2.236" transform="translate(-15.252 11.391) rotate(-26.565)" style="fill:url(#linear-gradient-5)"/><path d="M23,19a8,8,0,1,0,8,8A8.009,8.009,0,0,0,23,19Zm0,2a5.983,5.983,0,0,1,4.46,2H18.54A5.983,5.983,0,0,1,23,21Zm6,6a5.976,5.976,0,0,1-.35,2H26.444a3.875,3.875,0,0,0,0-4H28.65A5.976,5.976,0,0,1,29,27ZM17,27a5.976,5.976,0,0,1,.35-2h2.206a3.875,3.875,0,0,0,0,4H17.35A5.976,5.976,0,0,1,17,27Zm4,0a2,2,0,1,1,2,2A2,2,0,0,1,21,27Zm2,6a5.983,5.983,0,0,1-4.46-2h8.92A5.983,5.983,0,0,1,23,33Z" style="fill:url(#linear-gradient-6)"/><path d="M41,19a8,8,0,1,0,8,8A8.009,8.009,0,0,0,41,19Zm0,2a5.983,5.983,0,0,1,4.46,2H36.54A5.983,5.983,0,0,1,41,21Zm6,6a5.976,5.976,0,0,1-.35,2H44.444a3.875,3.875,0,0,0,0-4H46.65A5.976,5.976,0,0,1,47,27ZM35,27a5.976,5.976,0,0,1,.35-2h2.206a3.875,3.875,0,0,0,0,4H35.35A5.976,5.976,0,0,1,35,27Zm4,0a2,2,0,1,1,2,2A2,2,0,0,1,39,27Zm2,6a5.983,5.983,0,0,1-4.46-2h8.92A5.983,5.983,0,0,1,41,33Z" style="fill:url(#linear-gradient-6)"/></g></svg>
